<?xml version="1.0" encoding="UTF-8"?>
<svg width="24px" height="24px" viewBox="0 0 24 24" version="1.1" xmlns="http://www.w3.org/2000/svg" xmlns:xlink="http://www.w3.org/1999/xlink">
    <title>185686EF-398B-440E-9CDA-3E49506AFFCF@1x</title>
    <g id="Symbols" stroke="none" stroke-width="1" fill="none" fill-rule="evenodd">
        <g id="Foundation/icons/24px/social-media/instagram" fill="#000000">
            <path d="M13.0275531,2.00077955 C14.8279718,2.00404728 15.2087674,2.01846387 16.1229674,2.06017771 C17.1873905,2.10872478 17.9142865,2.27778605 18.5503998,2.5249672 C19.2079882,2.78052401 19.7656642,3.12245728 20.3215935,3.67838663 C20.8775229,4.23435568 21.2194561,4.79203161 21.475013,5.44962002 C21.7222338,6.0856937 21.8912554,6.81262938 21.9398421,7.87701279 C21.9502706,8.10557129 21.958993,8.30079019 21.9662616,8.49318593 L21.973055,8.68577087 C21.9899283,9.20284917 21.9970618,9.772187 21.9992403,10.9724666 L21.9992403,13.0275584 C21.9970618,14.2278213 21.9899283,14.7971536 21.973055,15.3142301 L21.9662616,15.5068145 C21.958993,15.6992098 21.9502706,15.8944287 21.9398421,16.1229872 C21.8912554,17.1873706 21.7222338,17.9143063 21.475013,18.55038 C21.2194561,19.2079684 20.8775229,19.7656443 20.3215935,20.3216134 C19.7656642,20.8775427 19.2079882,21.219476 18.5503998,21.4750328 C17.9142865,21.722214 17.1873905,21.8912752 16.1229674,21.9398223 C15.8944174,21.9502507 15.6992052,21.9589731 15.5068147,21.9662418 L15.3142345,21.9730351 C14.7971678,21.9899084 14.2278323,21.997042 13.0275531,21.9992204 L10.9724469,21.9992204 C9.77216774,21.997042 9.20283222,21.9899084 8.68576549,21.9730351 L8.49318534,21.9662418 C8.30079485,21.9589731 8.10558263,21.9502507 7.87703264,21.9398223 C6.81260953,21.8912752 6.08571355,21.722214 5.44960017,21.4750328 C4.79201177,21.219476 4.23433583,20.8775427 3.67840648,20.3216134 C3.12247713,19.7656443 2.78054386,19.2079684 2.52498705,18.55038 C2.2777662,17.9143063 2.10874462,17.1873706 2.06015787,16.1229872 C2.01844403,15.2087532 2.00402743,14.8279528 2.0007597,13.0275584 L2.0007597,10.9724666 C2.00402743,9.17204719 2.01844403,8.79124679 2.06015787,7.87701279 C2.10874462,6.81262938 2.2777662,6.0856937 2.52498705,5.44962002 C2.78054386,4.79203161 3.12247713,4.23435568 3.67840648,3.67838663 C4.23433583,3.12245728 4.79201177,2.78052401 5.44960017,2.5249672 C6.08571355,2.27778605 6.81260953,2.10872478 7.87703264,2.06017771 C8.79123261,2.01846387 9.17202815,2.00404728 10.9724469,2.00077955 Z M12.5558716,3.80197777 L11.4441284,3.80197777 C11.357522,3.80203938 11.2738304,3.8021178 11.1928964,3.80221443 L10.7391269,3.80302409 C9.18742491,3.80687699 8.81834371,3.82090955 7.95912202,3.86011063 C6.98417159,3.9045691 6.45463946,4.06747764 6.10226639,4.2044256 C5.63553184,4.38583204 5.30241088,4.60252738 4.95245921,4.95247906 C4.60254723,5.30239103 4.38581219,5.635512 4.20440575,6.10228624 C4.06749748,6.45465931 3.90458895,6.98415175 3.86009078,7.95914187 C3.8208897,8.81833121 3.8068835,9.18743278 3.80304036,10.7391435 L3.80223291,11.1929149 C3.80213657,11.2738492 3.8020584,11.3575411 3.801997,11.4441476 L3.801997,12.5558839 C3.8020584,12.6424892 3.80213657,12.7261798 3.80223291,12.807113 L3.80304036,13.260878 C3.8068835,14.8125672 3.8208897,15.1816688 3.86009078,16.0408581 C3.90458895,17.0158483 4.06749748,17.5453407 4.20440575,17.8977138 C4.38581219,18.364488 4.60254723,18.697609 4.95245921,19.0475209 C5.30241088,19.3974726 5.63553184,19.614168 6.10226639,19.7955744 C6.45463946,19.9325224 6.98417159,20.0954309 7.95916172,20.1398894 C8.85726986,20.1808723 9.21981064,20.1943467 10.9581501,20.1974396 L11.7128318,20.198158 L12,20.1982014 C12.0988995,20.1982014 12.1945699,20.1981874 12.2871682,20.198158 L13.0418499,20.1974396 C14.7801894,20.1943467 15.1427301,20.1808723 16.0408383,20.1398894 C17.0158284,20.0954309 17.5453605,19.9325224 17.8977336,19.7955744 C18.3644682,19.614168 18.6975891,19.3974726 19.0475408,19.0475209 C19.3974528,18.697609 19.6141878,18.364488 19.7955942,17.8977138 C19.9325025,17.5453407 20.0954111,17.0158483 20.1399092,16.0408581 C20.1808922,15.1426147 20.1943377,14.7800251 20.1974221,13.0417968 L20.1981383,12.287167 L20.1981816,12.0000198 C20.1981816,11.9011262 20.1981676,11.8054614 20.1981383,11.7128684 L20.1974221,10.9582277 C20.1943377,9.21997489 20.1808922,8.85738527 20.1399092,7.95914187 C20.0954111,6.98415175 19.9325025,6.45465931 19.7955942,6.10228624 C19.6141878,5.635512 19.3974528,5.30239103 19.0475408,4.95247906 C18.6975891,4.60252738 18.3644682,4.38583204 17.8977336,4.2044256 C17.5453605,4.06747764 17.0158284,3.9045691 16.0408383,3.86011063 C15.1816489,3.82090955 14.8125737,3.80687699 13.2608728,3.80302409 L12.8071036,3.80221443 C12.7261696,3.8021178 12.642478,3.80203938 12.5558716,3.80197777 Z M12,7 C14.7614115,7 17,9.23855849 17,12.0000193 C17,14.7614415 14.7614115,17 12,17 C9.23858849,17 7,14.7614415 7,12.0000193 C7,9.23855849 9.23858849,7 12,7 Z M12,8.75438393 C10.2075136,8.75438393 8.75437715,10.2074874 8.75437715,12.0000193 C8.75437715,13.7925126 10.2075136,15.2456161 12,15.2456161 C13.7924864,15.2456161 15.2455842,13.7925126 15.2455842,12.0000193 C15.2455842,10.2074874 13.7924864,8.75438393 12,8.75438393 Z M17.5000165,5.5 C18.0522734,5.5 18.5,5.94770096 18.5,6.5 C18.5,7.05229904 18.0522734,7.5 17.5000165,7.5 C16.9477266,7.5 16.5,7.05229904 16.5,6.5 C16.5,5.94770096 16.9477266,5.5 17.5000165,5.5 Z" id="Shape"></path>
        </g>
    </g>
</svg>