<?xml version="1.0" encoding="UTF-8"?>
    <svg width="32" height="32" viewBox="0 0 24 24" version="1.1" xmlns="http://www.w3.org/2000/svg" xmlns:xlink="http://www.w3.org/1999/xlink">
    <path
      fillRule="evenodd"
      d="M5 7v2H2v7.584l1.2929-1.2911a1 1 0 0 1 .5757-.2842L4 15h7v-3h2v3c0 1.0544-.8159 1.9182-1.8507 1.9945L11 17H4.414l-2.7069 2.7071c-.6026.6026-1.6143.2206-1.7011-.5935L0 19V9c0-1.0544.8159-1.9182 1.8507-1.9945L2 7h3Zm13-7c1.0544 0 1.9182.8159 1.9945 1.8507L20 2v10l-.0017.059-.005.0576-.0089.0598-.0108.0529-.0319.108-.0266.0666-.0708.1322-.064.0893-.0732.0817-.0942.0832-.0768.054-.0963.054-.0359.0168-.0666.0266-.108.0319-.0529.0108-.0598.0089-.0576.005L19 13l-.059-.0017-.0576-.005-.0598-.0089-.0529-.0108-.108-.0319-.0666-.0266-.1322-.0708-.0893-.064-.0817-.0732L15.585 10H9c-1.0544 0-1.9182-.8159-1.9945-1.8507L7 8V2C7 .9456 7.8159.0818 8.8507.0055L9 0h9Zm0 2H9v6h7a1 1 0 0 1 .608.206l.0991.0869L18 9.585V2Z"
    />
</svg>
