<?xml version="1.0" encoding="UTF-8"?>
<svg width="32" height="32" viewBox="0 0 24 24" version="1.1" xmlns="http://www.w3.org/2000/svg" xmlns:xlink="http://www.w3.org/1999/xlink">
    <path
      fillRule="evenodd"
      d="M9.5858 0a1 1 0 0 1 .707.2929l5.4143 5.4142A1 1 0 0 1 16 6.4142V18c0 1.1046-.8954 2-2 2H2c-1.1046 0-2-.8954-2-2V2C0 .8954.8954 0 2 0h7.5858ZM8 2H2v16h12V8h-4c-1.0544 0-1.9182-.8159-1.9945-1.8507L8 6V2Zm4 11v2H4v-2h8Zm0-3v2H4v-2h8ZM7 7v2H4V7h3Zm3-4.171V6h3.171L10 2.829Z"
    />
</svg>

