<?xml version="1.0" encoding="UTF-8"?>
<svg width="24px" height="24px" viewBox="0 0 24 24" version="1.1" xmlns="http://www.w3.org/2000/svg" xmlns:xlink="http://www.w3.org/1999/xlink">
    <title>72AA016F-8DB1-48C7-92D9-A5B9E90EB3CE@1x</title>
    <g id="Symbols" stroke="none" stroke-width="1" fill="none" fill-rule="evenodd">
        <g id="Foundation-/-icons-/-24px-/-social-media-/-youtube" fill="#000000">
            <path d="M12.3536115,5.0003514 C13.6942578,5.00771317 18.4820468,5.05924551 19.8194239,5.41997191 C20.6803309,5.65154033 21.3582114,6.33385436 21.588302,7.20033178 C21.9646092,8.61368356 22.0022399,11.4090896 22.006003,11.9540372 L22.006003,12.1406664 C22.0022399,12.6855977 21.9646092,15.4809321 21.588302,16.8944885 C21.3582114,17.7608522 20.6803309,18.4431662 19.8194239,18.6748483 C19.2250341,18.8351279 17.9490814,18.9343485 16.5971125,18.9957709 L16.0877437,19.0170779 C14.3858546,19.0824981 12.683461,19.0934015 12.1632711,19.0952187 L11.8416956,19.0952187 C11.3215057,19.0934015 9.61911215,19.0824981 7.91722307,19.0170779 L7.40785419,18.9957709 C6.05588532,18.9343485 4.77993266,18.8351279 4.18554285,18.6748483 C3.32474949,18.4431662 2.64675534,17.7608522 2.41666478,16.8944885 C2.04035756,15.4809321 2.00272684,12.6855977 1.99896377,12.1406664 L1.99896377,11.9540372 C2.00272684,11.4090896 2.04035756,8.61368356 2.41666478,7.20033178 C2.64675534,6.33385436 3.32474949,5.65154033 4.18554285,5.41997191 C5.52291992,5.05924551 10.3107089,5.00771317 11.6513552,5.0003514 Z M9.95622338,9.07243231 L9.95622338,15.0222743 L15.1855545,12.047467 L9.95622338,9.07243231 Z" id="Shape"></path>
        </g>
    </g>
</svg>