<?xml version="1.0" encoding="UTF-8"?>
<svg viewBox="0 0 46 12" version="1.1" xmlns="http://www.w3.org/2000/svg" xmlns:xlink="http://www.w3.org/1999/xlink" id='logo-paypal-bw'>
    <g transform="translate(-178.000000, -1516.000000)">
        <path d="M196.994882,1519 C197.187523,1519 197.360498,1519.11077 197.443224,1519.27963 L197.472946,1519.3554 L198.481495,1522.72335 L200.860809,1519.21859 C200.935454,1519.10914 201.049351,1519.03491 201.176197,1519.0096 L201.273349,1519 L202.99847,1519 C203.215958,1519 203.351924,1519.21952 203.276822,1519.40787 L203.243793,1519.46915 L197.50597,1527.75141 C197.431745,1527.85877 197.318938,1527.93123 197.193048,1527.95592 L197.096575,1527.96528 L195.373551,1527.96528 C195.15512,1527.96528 195.018635,1527.74407 195.095935,1527.55499 L195.129801,1527.49351 L196.916253,1524.97161 L195.016051,1519.39524 C194.957807,1519.22284 195.064406,1519.04464 195.2335,1519.00717 L195.29964,1519 L196.994882,1519 Z M189.884259,1519 C190.652353,1519 191.421802,1519.15548 191.825371,1519.60956 L191.91184,1519.71972 L192.03188,1519.89375 L192.107888,1519.41359 C192.126672,1519.29259 192.217532,1519.19816 192.331933,1519.17004 L192.403009,1519.16145 L194.119743,1519.16145 C194.280278,1519.16145 194.407501,1519.28707 194.417133,1519.43963 L194.413816,1519.50637 L193.485993,1525.38206 C193.452052,1525.59442 193.28888,1525.75742 193.083919,1525.79485 L192.993775,1525.80298 L191.447405,1525.80298 C191.287329,1525.80298 191.159762,1525.67777 191.149685,1525.52426 L191.152808,1525.45702 L191.22934,1524.98 C191.22934,1524.98 190.381719,1525.96286 188.853171,1525.96286 C187.962566,1525.96286 187.214017,1525.70601 186.690872,1525.08956 C186.12055,1524.41911 185.887284,1523.45774 186.051356,1522.45234 C186.366921,1520.43681 187.987203,1519 189.884259,1519 Z M215.883589,1519 C216.647137,1519 217.411579,1519.15365 217.816982,1519.60153 L217.910645,1519.71972 L218.03121,1519.89375 L218.107218,1519.41359 C218.125564,1519.29259 218.215624,1519.19816 218.330376,1519.17004 L218.401814,1519.16145 L220.1175,1519.16145 C220.278493,1519.16145 220.406175,1519.28707 220.416617,1519.43963 L220.413669,1519.50637 L219.485323,1525.38206 C219.45184,1525.59442 219.287923,1525.75742 219.083471,1525.79485 L218.993629,1525.80298 L217.447782,1525.80298 C217.286789,1525.80298 217.159107,1525.67777 217.149016,1525.52426 L217.152137,1525.45702 L217.228669,1524.98 C217.228669,1524.98 216.381048,1525.96286 214.8525,1525.96286 C213.961895,1525.96286 213.214395,1525.70601 212.690202,1525.08956 C212.119879,1524.41911 211.887661,1523.45774 212.05121,1522.45234 C212.366774,1520.43681 213.986532,1519 215.883589,1519 Z M183.53086,1516 C184.730739,1516 185.634449,1516.31661 186.143965,1516.91524 C186.607876,1517.4604 186.761465,1518.23883 186.601062,1519.22956 C186.257408,1521.41599 184.975027,1522.55667 182.761469,1522.63274 L182.520739,1522.63681 L181.38586,1522.63681 C181.171662,1522.63681 180.984754,1522.77327 180.91609,1522.96997 L180.894167,1523.05774 L180.503118,1525.53718 C180.469635,1525.74954 180.305719,1525.91254 180.100915,1525.94997 L180.010901,1525.9581 L178.299409,1525.9581 C178.138416,1525.9581 178.010734,1525.83289 178.000643,1525.68008 L178.003764,1525.61319 L179.453683,1516.4204 C179.487166,1516.2085 179.651083,1516.04556 179.855886,1516.00813 L179.945901,1516 L183.53086,1516 Z M209.530861,1516 C210.73074,1516 211.633926,1516.31661 212.142917,1516.91524 C212.606829,1517.4604 212.761466,1518.23883 212.600538,1519.22956 C212.256378,1521.41599 210.974469,1522.55667 208.760472,1522.63274 L208.519692,1522.63681 L207.385337,1522.63681 C207.171138,1522.63681 206.98423,1522.77327 206.915566,1522.96997 L206.893643,1523.05774 L206.482151,1525.66351 C206.459237,1525.80908 206.348514,1525.92154 206.209733,1525.9507 L206.13828,1525.9581 L204.298361,1525.9581 C204.138285,1525.9581 204.010718,1525.83289 204.000642,1525.68008 L204.003764,1525.61319 L205.453684,1516.4204 C205.487166,1516.2085 205.651083,1516.04556 205.855535,1516.00813 L205.945377,1516 L209.530861,1516 Z M223.426224,1516 C223.609167,1516 223.749651,1516.16407 223.720821,1516.34544 L223.720821,1516.34544 L222.269853,1525.5377 C222.232111,1525.7804 222.023482,1525.95863 221.777635,1525.95863 L221.777635,1525.95863 L220.298361,1525.95863 C220.115417,1525.95863 219.974934,1525.79508 220.003764,1525.61371 L220.003764,1525.61371 L221.475176,1516.25266 C221.497716,1516.10746 221.623522,1516.00052 221.769772,1516 L221.769772,1516 Z M190.291558,1520.82052 C189.313937,1520.82052 188.522405,1521.5004 188.367767,1522.47278 C188.287042,1522.9498 188.383493,1523.37806 188.637203,1523.67895 C188.893009,1523.98194 189.291396,1524.14181 189.789905,1524.14181 C190.782727,1524.14181 191.561155,1523.48343 191.7268,1522.50266 C191.801759,1522.02774 191.697969,1521.59685 191.436396,1521.2881 C191.175348,1520.9825 190.779058,1520.82052 190.291558,1520.82052 Z M216.289314,1520.82052 C215.311694,1520.82052 214.52121,1521.5004 214.365524,1522.47278 C214.285847,1522.9498 214.38125,1523.37806 214.63496,1523.67895 C214.890766,1523.98194 215.290202,1524.14181 215.787661,1524.14181 C216.780484,1524.14181 217.55996,1523.48343 217.724556,1522.50266 C217.800564,1522.02774 217.696774,1521.59685 217.434153,1521.2881 C217.173105,1520.9825 216.776814,1520.82052 216.289314,1520.82052 Z M182.372242,1517.98959 L181.948844,1517.98931 C181.826532,1517.98931 181.718781,1518.06358 181.673218,1518.17236 L181.653723,1518.24145 L181.274207,1520.64383 L181.939252,1520.64372 C182.849517,1520.6414 183.756924,1520.5879 183.944449,1519.35746 C184.016264,1518.9056 183.958602,1518.57851 183.770417,1518.35835 C183.512228,1518.05641 183.056478,1518.00151 182.544711,1517.99153 L182.372242,1517.98959 Z M208.372648,1517.98959 L207.949369,1517.98931 C207.82662,1517.98931 207.719525,1518.06358 207.674192,1518.17236 L207.654772,1518.24145 L207.274732,1520.64383 L207.939318,1520.64372 C208.850041,1520.6414 209.757427,1520.5879 209.94445,1519.35746 C210.016264,1518.9056 209.959127,1518.57851 209.770942,1518.35835 C209.512752,1518.05641 209.056652,1518.00151 208.545045,1517.99153 L208.372648,1517.98959 Z" id="logo_paypal_bw"></path>
    </g>
</svg>
