<?xml version="1.0" encoding="UTF-8"?>
<svg viewBox="0 0 35 28" version="1.1" xmlns="http://www.w3.org/2000/svg" xmlns:xlink="http://www.w3.org/1999/xlink" id="logo-mastercard-bw">
    <g transform="translate(-647.000000, -1508.000000)">
        <path d="M664.017598,1510.64376 C661.748282,1512.61841 660.311487,1515.52491 660.311487,1518.76914 C660.311487,1522.01337 661.748282,1524.92017 664.017598,1526.89453 C664.150419,1527.01029 664.286231,1527.12277 664.425034,1527.23166 C664.563838,1527.12277 664.69965,1527.01029 664.83247,1526.89453 C667.101786,1524.92017 668.538282,1522.01337 668.538282,1518.76914 C668.538282,1515.52491 667.101786,1512.61841 664.83247,1510.64376 C664.69965,1510.52799 664.563838,1510.41551 664.425034,1510.30662 C664.286231,1510.41551 664.150419,1510.52799 664.017598,1510.64376 Z M665.118752,1509.79987 C665.206103,1509.87136 665.29465,1509.94166 665.379009,1510.01525 C667.916359,1512.22265 669.371402,1515.41333 669.371402,1518.76914 C669.371402,1522.12495 667.916359,1525.31564 665.379308,1527.52303 C665.295248,1527.59632 665.206103,1527.66692 665.118752,1527.73841 C666.825974,1528.87517 668.875718,1529.53837 671.080419,1529.53837 C677.028325,1529.53837 681.84965,1524.71705 681.84965,1518.76914 C681.84965,1512.82153 677.028325,1507.99991 671.080419,1507.99991 C668.875718,1507.99991 666.825974,1508.66312 665.118752,1509.79987 Z M663.731017,1527.73841 C662.024094,1528.87547 659.974051,1529.53837 657.76935,1529.53837 C651.821444,1529.53837 647.00012,1524.71675 647.00012,1518.76914 C647.00012,1512.82153 651.821444,1507.99991 657.76935,1507.99991 C659.974051,1507.99991 662.023795,1508.66312 663.731017,1509.79987 C663.643667,1509.87136 663.555419,1509.94166 663.470761,1510.01495 C660.93341,1512.22265 659.478667,1515.41333 659.478667,1518.76914 C659.478667,1522.12525 660.93341,1525.31594 663.470761,1527.52303 C663.554821,1527.59602 663.643667,1527.66692 663.731017,1527.73841 Z M681.512513,1525.44247 L681.512513,1525.02457 L681.403325,1525.02457 L681.277684,1525.31205 L681.152342,1525.02457 L681.043154,1525.02457 L681.043154,1525.44247 L681.120333,1525.44247 L681.120333,1525.12718 L681.237897,1525.3991 L681.317769,1525.3991 L681.435333,1525.12658 L681.435333,1525.44247 L681.512513,1525.44247 Z M680.821487,1525.44247 L680.821487,1525.09576 L680.960889,1525.09576 L680.960889,1525.02517 L680.604906,1525.02517 L680.604906,1525.09576 L680.744906,1525.09576 L680.744906,1525.44247 L680.821487,1525.44247 Z M681.158026,1534.74021 L681.158026,1534.81021 L681.222641,1534.81021 C681.237299,1534.81021 681.249265,1534.80722 681.258239,1534.80153 C681.266915,1534.79585 681.271103,1534.78688 681.271103,1534.77491 C681.271103,1534.76324 681.266915,1534.75457 681.258239,1534.74859 C681.249265,1534.7429 681.237299,1534.74021 681.222641,1534.74021 L681.158026,1534.74021 Z M681.223239,1534.69055 C681.257342,1534.69055 681.283068,1534.69803 681.301615,1534.71329 C681.320162,1534.72824 681.329137,1534.74888 681.329137,1534.77491 C681.329137,1534.79645 681.321658,1534.8147 681.307299,1534.82876 C681.292641,1534.84282 681.271701,1534.85179 681.245077,1534.85508 L681.331231,1534.9547 L681.263624,1534.9547 L681.183453,1534.85538 L681.158026,1534.85538 L681.158026,1534.9547 L681.101487,1534.9547 L681.101487,1534.69055 L681.223239,1534.69055 Z M681.292342,1535.02769 C681.318966,1535.01632 681.342,1535.00017 681.361744,1534.98012 C681.382085,1534.96038 681.397342,1534.93705 681.408709,1534.90982 C681.420376,1534.8829 681.42606,1534.85418 681.42606,1534.82367 C681.42606,1534.79286 681.420376,1534.76414 681.408709,1534.73722 C681.397342,1534.71029 681.382085,1534.68696 681.361744,1534.66692 C681.342,1534.64688 681.318966,1534.63102 681.292342,1534.61965 C681.265718,1534.60829 681.237299,1534.6029 681.206786,1534.6029 C681.175376,1534.6029 681.14606,1534.60829 681.119137,1534.61965 C681.091915,1534.63102 681.068581,1534.64688 681.048239,1534.66692 C681.028496,1534.68696 681.012641,1534.71029 681.001274,1534.73722 C680.989906,1534.76414 680.984222,1534.79286 680.984222,1534.82367 C680.984222,1534.85418 680.989906,1534.8829 681.001274,1534.90982 C681.012641,1534.93705 681.028496,1534.96038 681.048239,1534.98012 C681.068581,1535.00017 681.091915,1535.01632 681.119137,1535.02769 C681.14606,1535.03935 681.175376,1535.04504 681.206786,1535.04504 C681.237299,1535.04504 681.265718,1535.03935 681.292342,1535.02769 Z M681.319265,1534.56162 C681.354265,1534.57658 681.384778,1534.59662 681.411103,1534.62265 C681.437128,1534.64837 681.457769,1534.67859 681.473026,1534.71329 C681.487983,1534.74769 681.495462,1534.78448 681.495462,1534.82367 C681.495462,1534.86256 681.487983,1534.89935 681.473026,1534.93346 C681.457769,1534.96786 681.437128,1534.99807 681.411103,1535.0238 C681.384778,1535.04953 681.354265,1535.06987 681.319265,1535.08512 C681.283966,1535.10038 681.246274,1535.10786 681.206786,1535.10786 C681.165803,1535.10786 681.127513,1535.10038 681.091915,1535.08512 C681.056615,1535.06987 681.025504,1535.04953 680.999778,1535.0238 C680.973453,1534.99807 680.953111,1534.96786 680.937855,1534.93346 C680.922897,1534.89935 680.915419,1534.86256 680.915419,1534.82367 C680.915419,1534.78448 680.922897,1534.74769 680.937855,1534.71329 C680.953111,1534.67859 680.973453,1534.64837 680.999778,1534.62265 C681.025504,1534.59662 681.056615,1534.57658 681.091915,1534.56162 C681.127513,1534.54666 681.165803,1534.53948 681.206786,1534.53948 C681.246274,1534.53948 681.283966,1534.54666 681.319265,1534.56162 Z M655.397427,1532.6088 C655.911957,1532.6088 656.258966,1533.00367 656.258966,1533.52388 C656.258966,1534.0447 655.911957,1534.43927 655.397427,1534.43927 C654.859265,1534.43927 654.530205,1534.02645 654.530205,1533.52388 C654.530205,1533.02162 654.859265,1532.6088 655.397427,1532.6088 Z M656.845291,1533.52388 L656.845291,1532.09427 L656.223068,1532.09427 L656.223068,1532.44128 C656.025932,1532.18401 655.726786,1532.02247 655.319949,1532.02247 C654.518239,1532.02247 653.890034,1532.65068 653.890034,1533.52388 C653.890034,1534.39739 654.518239,1535.02559 655.319949,1535.02559 C655.726786,1535.02559 656.025932,1534.86406 656.223068,1534.60649 L656.223068,1534.9538 L656.845291,1534.9538 L656.845291,1533.52388 Z M678.721786,1532.6088 C679.236316,1532.6088 679.583325,1533.00367 679.583325,1533.52388 C679.583325,1534.0447 679.236316,1534.43927 678.721786,1534.43927 C678.183325,1534.43927 677.854564,1534.02645 677.854564,1533.52388 C677.854564,1533.02162 678.183325,1532.6088 678.721786,1532.6088 Z M680.16965,1533.52388 L680.16965,1530.94585 L679.547427,1530.94585 L679.547427,1532.44128 C679.349991,1532.18401 679.050846,1532.02247 678.644009,1532.02247 C677.842598,1532.02247 677.214393,1532.65068 677.214393,1533.52388 C677.214393,1534.39739 677.842598,1535.02559 678.644009,1535.02559 C679.050846,1535.02559 679.349991,1534.86406 679.547427,1534.60649 L679.547427,1534.9538 L680.16965,1534.9538 L680.16965,1533.52388 Z M665.285974,1533.2726 L663.802513,1533.2726 C663.868325,1532.86008 664.119607,1532.57888 664.562043,1532.57888 C664.963197,1532.57888 665.220162,1532.83017 665.285974,1533.2726 Z M663.150376,1533.52388 C663.150376,1534.43329 663.760632,1535.02559 664.616188,1535.02559 C665.046658,1535.02559 665.44153,1534.9176 665.788538,1534.62474 L665.48341,1534.16406 C665.244094,1534.35551 664.939265,1534.4632 664.652085,1534.4632 C664.251231,1534.4632 663.886274,1534.27773 663.796231,1533.7632 L665.920162,1533.7632 C665.926145,1533.68542 665.932128,1533.60794 665.932128,1533.52388 C665.926145,1532.63273 665.375718,1532.02247 664.574308,1532.02247 C663.736701,1532.02247 663.150376,1532.63273 663.150376,1533.52388 Z M672.949179,1532.6088 C673.463709,1532.6088 673.810419,1533.00367 673.810419,1533.52388 C673.810419,1534.0447 673.463709,1534.43927 672.949179,1534.43927 C672.410718,1534.43927 672.081658,1534.02645 672.081658,1533.52388 C672.081658,1533.02162 672.410718,1532.6088 672.949179,1532.6088 Z M674.396744,1533.52388 L674.396744,1532.09427 L673.774521,1532.09427 L673.774521,1532.44128 C673.577385,1532.18401 673.278239,1532.02247 672.871103,1532.02247 C672.069692,1532.02247 671.441487,1532.65068 671.441487,1533.52388 C671.441487,1534.39739 672.069692,1535.02559 672.871103,1535.02559 C673.278239,1535.02559 673.577385,1534.86406 673.774521,1534.60649 L673.774521,1534.9538 L674.396744,1534.9538 L674.396744,1533.52388 Z M670.095632,1535.02559 C670.526402,1535.02559 670.813282,1534.92987 671.124692,1534.68457 L670.825547,1534.1823 C670.592214,1534.34953 670.346915,1534.43927 670.077684,1534.43927 C669.581103,1534.43329 669.216444,1534.07431 669.216444,1533.52388 C669.216444,1532.97346 669.581103,1532.61478 670.077684,1532.6088 C670.346915,1532.6088 670.592214,1532.69854 670.825547,1532.86606 L671.124692,1532.3635 C670.813282,1532.1182 670.526402,1532.02247 670.095632,1532.02247 C669.174564,1532.02247 668.569991,1532.65666 668.569991,1533.52388 C668.569991,1534.39141 669.174564,1535.02559 670.095632,1535.02559 Z M675.832641,1532.44128 L675.832641,1532.09427 L675.216103,1532.09427 L675.216103,1534.9538 L675.838325,1534.9538 L675.838325,1533.35038 C675.838325,1532.87803 676.041744,1532.61478 676.448581,1532.61478 C676.574222,1532.61478 676.705846,1532.63273 676.83747,1532.68658 L677.028923,1532.10055 C676.891316,1532.04641 676.711829,1532.02247 676.586188,1532.02247 C676.227214,1532.02247 675.99388,1532.19 675.832641,1532.44128 Z M659.919906,1532.32162 C659.620761,1532.12418 659.208239,1532.02247 658.753538,1532.02247 C658.029607,1532.02247 657.563239,1532.36948 657.563239,1532.93756 C657.563239,1533.40453 657.910248,1533.69171 658.55012,1533.78145 L658.843282,1533.82303 C659.184009,1533.87089 659.345846,1533.96064 659.345846,1534.12218 C659.345846,1534.34354 659.118496,1534.46918 658.693709,1534.46918 C658.26294,1534.46918 657.951829,1534.33188 657.742427,1534.17004 L657.449564,1534.65465 C657.790291,1534.90564 658.221359,1535.02559 658.687726,1535.02559 C659.513368,1535.02559 659.992,1534.63671 659.992,1534.09226 C659.992,1533.5897 659.615077,1533.32645 658.992855,1533.23671 L658.699692,1533.19512 C658.430462,1533.15923 658.215077,1533.10538 658.215077,1532.91393 C658.215077,1532.70453 658.418496,1532.57888 658.759821,1532.57888 C659.124479,1532.57888 659.47747,1532.71649 659.650974,1532.82388 L659.919906,1532.32162 Z M667.188239,1532.44128 L667.188239,1532.09427 L666.572299,1532.09427 L666.572299,1534.9538 L667.194222,1534.9538 L667.194222,1533.35038 C667.194222,1532.87803 667.39794,1532.61478 667.804479,1532.61478 C667.93012,1532.61478 668.061744,1532.63273 668.193368,1532.68658 L668.384521,1532.10055 C668.246915,1532.04641 668.067726,1532.02247 667.942085,1532.02247 C667.58341,1532.02247 667.349778,1532.19 667.188239,1532.44128 Z M662.636145,1532.09427 L661.619051,1532.09427 L661.619051,1531.22705 L660.991145,1531.22705 L660.991145,1532.09427 L660.410504,1532.09427 L660.410504,1532.66235 L660.991145,1532.66235 L660.991145,1533.96662 C660.991145,1534.63072 661.248111,1535.02559 661.984009,1535.02559 C662.25294,1535.02559 662.564051,1534.94183 662.761487,1534.80423 L662.582299,1534.27175 C662.396829,1534.37944 662.193111,1534.43329 662.031872,1534.43329 C661.720761,1534.43329 661.619051,1534.24183 661.619051,1533.95495 L661.619051,1532.66235 L662.636145,1532.66235 L662.636145,1532.09427 Z M653.339607,1534.9538 L653.339607,1533.15923 C653.339607,1532.48316 652.909137,1532.02846 652.215419,1532.02247 C651.850462,1532.01649 651.473538,1532.13017 651.209991,1532.53102 C651.012855,1532.21393 650.701744,1532.02247 650.264991,1532.02247 C649.960162,1532.02247 649.661017,1532.11252 649.427385,1532.44726 L649.427385,1532.09427 L648.805462,1532.09427 L648.805462,1534.9538 L649.433667,1534.9538 L649.433667,1533.36863 C649.433667,1532.87205 649.70888,1532.6088 650.133368,1532.6088 C650.545889,1532.6088 650.75559,1532.87803 650.75559,1533.36235 L650.75559,1534.9538 L651.383496,1534.9538 L651.383496,1533.36863 C651.383496,1532.87205 651.670675,1532.6088 652.083496,1532.6088 C652.508282,1532.6088 652.711701,1532.87803 652.711701,1533.36235 L652.711701,1534.9538 L653.339607,1534.9538 Z" id="logo_mastercard_bw"></path>
    </g>
</svg>
