<?xml version="1.0" encoding="UTF-8"?>
<svg viewBox="0 0 25 25" version="1.1" xmlns="http://www.w3.org/2000/svg" xmlns:xlink="http://www.w3.org/1999/xlink" id="logo-amex-bw">
    <g transform="translate(-346.000000, -1510.000000)">
        <path d="M370.944444,1510.01111 L370.944239,1523.52668 C370.94412,1523.53579 370.943951,1523.5488 370.943737,1523.56544 L355.666667,1523.56667 L355.277778,1524.12222 L354.888889,1523.56667 L350.444444,1523.56667 L350.444444,1527.95556 L354.888889,1527.95556 L355.277778,1527.4 L355.666667,1527.95556 L358.444444,1527.95556 L358.444444,1527.01111 L358.333333,1527.01111 C358.722222,1527.01111 359.055556,1526.95556 359.333333,1526.84444 L359.333333,1528.01111 L361.333333,1528.01111 L361.333333,1527.45556 L361.722222,1528.01111 L370,1528.01111 C370.266667,1527.92222 370.533333,1527.86889 370.771556,1527.76578 L370.944444,1527.67778 L370.944444,1534.95556 L346,1534.95556 L346,1522.12222 L347.277778,1522.12222 L347.5,1521.51111 L347.944444,1521.51111 L348.166667,1522.12222 L357.944444,1522.12222 L357.944444,1521.56667 L358.333333,1522.12222 L361.055556,1522.12222 L361.055556,1521.78889 C361.111111,1521.84444 361.222222,1521.84444 361.277778,1521.9 C361.333333,1521.95556 361.444444,1521.95556 361.5,1522.01111 C361.611111,1522.06667 361.722222,1522.06667 361.833333,1522.06667 L363.833333,1522.06667 L364.055556,1521.45556 L364.5,1521.45556 L364.722222,1522.06667 L367.444444,1522.06667 L367.444444,1521.51111 L367.888889,1522.12222 L369.777778,1522.12222 L369.777778,1517.73333 L367.722222,1517.73333 L367.722222,1518.34444 L367.333333,1517.73333 L365.555556,1517.73333 L365.555556,1518.51111 L365.222222,1517.73333 L361.944444,1517.73333 C361.833333,1517.73333 361.722222,1517.78889 361.611111,1517.78889 C361.5,1517.78889 361.444444,1517.84444 361.333333,1517.9 C361.222222,1517.95556 361.166667,1517.95556 361.055556,1518.01111 L361.055556,1517.73333 L351.666667,1517.73333 L351.388889,1518.45556 L351.111111,1517.73333 L348.888889,1517.73333 L348.888889,1518.51111 L348.555556,1517.73333 L346.777778,1517.73333 L346,1519.62222 L346,1510.01111 L370.944444,1510.01111 Z M370.943737,1523.56544 L370.944444,1523.56667 L370.944444,1527.67778 C370.925232,1527.67778 370.919308,1527.17945 370.919779,1526.52746 C370.824748,1526.95082 370.465316,1527.23333 369.944444,1527.23333 L369.944444,1527.23333 L368.5,1527.23333 L368.5,1526.62222 L370,1526.62222 C370.222222,1526.62222 370.333333,1526.51111 370.277778,1526.28889 C370.277778,1526.12222 370.166667,1526.01111 370,1526.01111 L370,1526.01111 L369.333333,1526.01111 C368.777778,1526.01111 368.444444,1525.73333 368.444444,1525.17778 C368.444444,1524.67778 368.833333,1524.28889 369.444444,1524.28889 L369.444444,1524.28889 L370.935257,1524.28766 C370.939003,1523.94062 370.942333,1523.67472 370.943737,1523.56544 Z M368.222222,1524.28889 L367.944444,1524.9 L366.666667,1524.9 C366.5,1524.9 366.388889,1525.01111 366.388889,1525.17778 C366.388889,1525.34444 366.5,1525.45556 366.666667,1525.45556 L366.666667,1525.45556 L367.333333,1525.45556 C367.888889,1525.45556 368.222222,1525.73333 368.222222,1526.28889 C368.222222,1526.84444 367.833333,1527.23333 367.222222,1527.23333 L367.222222,1527.23333 L365.777778,1527.23333 L365.777778,1526.62222 L367.277778,1526.62222 C367.444444,1526.62222 367.611111,1526.51111 367.555556,1526.28889 C367.555556,1526.12222 367.444444,1526.01111 367.277778,1526.01111 L367.277778,1526.01111 L366.611111,1526.01111 C366.055556,1526.01111 365.722222,1525.73333 365.722222,1525.17778 C365.722222,1524.67778 366.111111,1524.28889 366.722222,1524.28889 L366.722222,1524.28889 L368.222222,1524.28889 Z M353.5,1524.23333 L353.5,1524.78889 L351.833333,1524.78889 L351.833333,1525.34444 L353.444444,1525.34444 L353.444444,1525.95556 L351.833333,1525.95556 L351.833333,1526.56667 L353.5,1526.56667 L353.5,1527.17778 L351.166667,1527.17778 L351.166667,1524.23333 L353.5,1524.23333 Z M354.555556,1524.23333 L355.277778,1525.17778 L356,1524.23333 L356.833333,1524.23333 L355.666667,1525.67778 L356.833333,1527.17778 L356,1527.17778 L355.277778,1526.17778 L354.555556,1527.12222 L353.722222,1527.12222 L354.888889,1525.67778 L353.722222,1524.23333 L354.555556,1524.23333 Z M358.611111,1524.17778 C359.222222,1524.17778 359.611111,1524.62222 359.611111,1525.17778 C359.611111,1525.78889 359.166667,1526.17778 358.555556,1526.17778 L358.555556,1526.17778 L357.666667,1526.17778 L357.666667,1527.17778 L357,1527.17778 L357,1524.23333 Z M361.555556,1524.23333 C362.166667,1524.23333 362.555556,1524.62222 362.555556,1525.17778 C362.555556,1525.62222 362.277778,1525.95556 361.777778,1526.06667 L361.777778,1526.06667 L362.777778,1527.17778 L361.944444,1527.17778 L361.055556,1526.12222 L360.722222,1526.12222 L360.666667,1527.17778 L360,1527.17778 L360,1524.23333 Z M365.333333,1524.23333 L365.333333,1524.78889 L363.666667,1524.78889 L363.666667,1525.34444 L365.277778,1525.34444 L365.277778,1525.95556 L363.666667,1525.95556 L363.666667,1526.56667 L365.333333,1526.56667 L365.333333,1527.17778 L363,1527.17778 L363,1524.23333 L365.333333,1524.23333 Z M370.666667,1524.9 L369.388889,1524.9 C369.222222,1524.9 369.111111,1525.01111 369.111111,1525.17778 C369.111111,1525.34444 369.222222,1525.45556 369.388889,1525.45556 L369.388889,1525.45556 L370.055556,1525.45556 C370.52523,1525.45556 370.836077,1525.65409 370.920958,1526.05116 C370.923664,1525.45428 370.929718,1524.80354 370.935014,1524.31028 L370.666667,1524.9 Z M358.5,1524.84444 L357.666667,1524.84444 L357.666667,1525.62222 L358.555556,1525.62222 C358.833333,1525.62222 358.944444,1525.45556 358.944444,1525.23333 C358.944444,1525.01111 358.777778,1524.84444 358.5,1524.84444 L358.5,1524.84444 Z M360.722222,1524.78889 L360.722222,1525.51111 L361.555556,1525.51111 C361.833333,1525.51111 361.944444,1525.34444 361.944444,1525.17778 C361.944444,1525.01111 361.833333,1524.84444 361.555556,1524.84444 L361.555556,1524.84444 L360.722222,1524.78889 Z M348.111111,1518.45556 L349.388889,1521.4 L348.666667,1521.4 L348.444444,1520.78889 L347,1520.78889 L346.722222,1521.4 L346,1521.4 L347.277778,1518.45556 L348.111111,1518.45556 Z M367.111111,1518.45556 L368.166667,1520.12222 L368.333333,1520.4 L368.333333,1518.45556 L369,1518.45556 L369,1521.4 L368.166667,1521.4 L367,1519.62222 L366.888889,1519.4 L366.888889,1521.4 L366.222222,1521.4 L366.222222,1518.45556 L367.111111,1518.45556 Z M364.722222,1518.45556 L366,1521.4 L365.277778,1521.4 L365,1520.78889 L363.555556,1520.78889 L363.277778,1521.4 L362.555556,1521.4 L363.833333,1518.45556 L364.722222,1518.45556 Z M363,1518.45556 L363,1519.06667 L362.277778,1519.06667 C361.777778,1519.06667 361.5,1519.4 361.5,1519.9 L361.5,1519.9 L361.5,1519.95556 C361.5,1520.45556 361.777778,1520.78889 362.277778,1520.78889 L362.277778,1520.78889 L362.444444,1520.78889 L362.166667,1521.4 C361.333333,1521.4 360.833333,1520.84444 360.833333,1519.95556 L360.833333,1519.95556 L360.833333,1519.9 C360.833333,1519.06667 361.333333,1518.45556 362.222222,1518.45556 L362.222222,1518.45556 L363,1518.45556 Z M360.333333,1518.51111 L360.333333,1521.4 L359.666667,1521.4 L359.666667,1518.51111 L360.333333,1518.51111 Z M358.222222,1518.45556 C358.833333,1518.45556 359.222222,1518.84444 359.222222,1519.4 C359.222222,1519.84444 358.944444,1520.17778 358.444444,1520.28889 L358.444444,1520.28889 L359.444444,1521.4 L358.611111,1521.4 L357.722222,1520.34444 L357.388889,1520.34444 L357.333333,1521.4 L356.666667,1521.4 L356.666667,1518.45556 Z M356.166667,1518.45556 L356.166667,1519.01111 L354.5,1519.01111 L354.5,1519.56667 L356.111111,1519.56667 L356.111111,1520.17778 L354.5,1520.17778 L354.5,1520.78889 L356.166667,1520.78889 L356.166667,1521.4 L353.833333,1521.4 L353.833333,1518.45556 L356.166667,1518.45556 Z M350.777778,1518.45556 L351.444444,1520.45556 L352.111111,1518.45556 L353.222222,1518.45556 L353.222222,1521.4 L352.555556,1521.4 L352.555556,1519.01111 L351.722222,1521.4 L351.111111,1521.4 L350.333333,1519.01111 L350.333333,1521.4 L349.666667,1521.4 L349.666667,1518.45556 L350.777778,1518.45556 Z M347.722222,1518.95556 L347.5,1519.56667 L347.222222,1520.23333 L348.222222,1520.23333 L347.944444,1519.56667 L347.722222,1518.95556 Z M364.333333,1518.95556 L364.111111,1519.56667 L363.833333,1520.23333 L364.833333,1520.23333 L364.555556,1519.56667 L364.333333,1518.95556 Z M357.388889,1519.01111 L357.388889,1519.73333 L358.222222,1519.73333 C358.5,1519.73333 358.611111,1519.56667 358.611111,1519.4 C358.611111,1519.23333 358.5,1519.06667 358.222222,1519.06667 L358.222222,1519.06667 L357.388889,1519.01111 Z" id="logo_amex_bw"></path>
    </g>
</svg>
