<?xml version="1.0" encoding="UTF-8"?>
<svg viewBox="0 0 50 14" version="1.1" xmlns="http://www.w3.org/2000/svg" xmlns:xlink="http://www.w3.org/1999/xlink" id="logo-payment-in-store-es-bw">
  <path d="M14.623 0c.642 0 1.16.515 1.16 1.15 0 .183-.048.355-.125.51.423.673.57 1.654.385 2.74l-.05.252.347.126c.238.086.377.317.34.542l-.022.084-.455 1.816-3.558 1.2c-.195.066-.352.203-.443.385a.75.75 0 0 0-.069.467l.03.117 1.082 3.148c.1.317.4.517.732.517a.78.78 0 0 0 .165-.018l.083-.023.574-.193-.22.872c-.08.22-.32.344-.56.3l-.1-.024-7.458-2.688c-.238-.086-.377-.317-.34-.542l.022-.084 3.79-7.67c.082-.222.32-.344.562-.3l.1.024.704.253c.573-1.07 1.378-1.813 2.198-2.077.122-.505.578-.88 1.126-.88zM48.71 9.684c.42 0 .74.118.96.354s.33.603.33 1.1h0v1.843h-.787l-.066-.33h-.026l-.142.114a2 2 0 0 1-.297.182 1.12 1.12 0 0 1-.505.114c-.15 0-.283-.025-.403-.075s-.222-.12-.305-.208a.96.96 0 0 1-.193-.308 1.04 1.04 0 0 1-.069-.383c0-.338.144-.6.433-.792s.754-.318 1.396-.383a.54.54 0 0 0-.128-.341c-.076-.084-.204-.127-.383-.127a1.17 1.17 0 0 0-.416.078c-.138.052-.285.123-.442.214h0l-.347-.63.213-.118a3.41 3.41 0 0 1 .446-.188 2.26 2.26 0 0 1 .731-.117zm-24.817 0c.232 0 .434.04.606.117s.317.186.433.325a1.37 1.37 0 0 1 .259.49c.057.188.085.393.085.613 0 .087-.004.17-.013.247l-.026.175H23.29l.033.133c.052.167.138.295.26.383.15.1.335.166.554.166.232 0 .465-.07.7-.214h0l.32.578-.172.105c-.12.064-.246.118-.382.162-.203.065-.403.097-.6.097-.232 0-.448-.038-.65-.114s-.376-.186-.524-.33-.264-.32-.347-.53-.125-.446-.125-.714c0-.26.044-.494.13-.704s.202-.387.344-.532.305-.256.488-.334.374-.117.57-.117zm22.614-1.253v4.55h-.787l-.066-.318h-.026l-.12.106c-.084.067-.178.125-.28.176a1.04 1.04 0 0 1-.465.114 1.26 1.26 0 0 1-.547-.117 1.18 1.18 0 0 1-.42-.334c-.116-.145-.205-.32-.27-.53s-.095-.444-.095-.707.038-.5.115-.707.177-.384.302-.53.27-.256.433-.334.33-.117.5-.117c.184 0 .334.03.452.09s.234.143.347.247h0l-.04-.493V8.432h.964zM37.8 9.684c.232 0 .434.04.606.117s.317.186.433.325a1.37 1.37 0 0 1 .259.49c.057.188.085.393.085.613 0 .087-.004.17-.013.247l-.026.175h-1.947l.033.133c.052.167.138.295.26.383.15.1.335.166.554.166.232 0 .465-.07.7-.214h0l.32.578-.172.105c-.12.064-.246.118-.382.162-.203.065-.403.097-.6.097-.232 0-.448-.038-.65-.114s-.376-.186-.524-.33-.264-.32-.347-.53-.125-.446-.125-.714c0-.26.044-.494.13-.704s.202-.387.344-.532.305-.256.488-.334.374-.117.57-.117zm-9.937 0c.354 0 .61.115.77.344s.24.547.24.954h0v2H27.9v-1.876l-.004-.13c-.01-.163-.04-.28-.09-.35-.063-.087-.165-.13-.305-.13-.122 0-.227.027-.315.08a1.84 1.84 0 0 0-.288.23h0v2.174h-.964v-3.22h.787l.066.41h.026l.144-.124a2.63 2.63 0 0 1 .315-.216c.166-.097.36-.146.583-.146zm13.91 0c.354 0 .61.115.77.344s.24.547.24.954h0v2h-.964v-1.876l-.004-.13c-.01-.163-.04-.28-.09-.35-.063-.087-.165-.13-.305-.13-.122 0-.227.027-.315.08a1.84 1.84 0 0 0-.288.23h0v2.174h-.964v-3.22h.787l.066.41h.026l.144-.124a2.63 2.63 0 0 1 .315-.216c.166-.097.36-.146.583-.146zm-6.162.078v3.22h-.964v-3.22h.964zM34.06 8.75v.805h-1.173v3.427h-.97V9.555h-1.173V8.75h3.317zm-15.8-2a.76.76 0 0 1 .343.329l.048.11 1.082 3.147c.125.365-.047.76-.385.93l-.096.04-4.456 1.502.175-.703 4.082-1.375c.066-.022.106-.084.106-.15l-.008-.05-.634-1.845-2.936 1 .2-.803 2.508-.845-.22-.643c-.018-.053-.057-.08-.08-.09-.015-.007-.04-.016-.07-.016l-.024.002-.026.007-1.848.622.176-.702 1.472-.497c.195-.066.405-.053.59.037zm-2.68 2.927l-.61 2.43-.948.32a.16.16 0 0 1-.176-.053l-.024-.044-.634-1.846 2.392-.806zm33.448 1.795l-.162.026c-.255.046-.437.106-.546.182-.13.09-.197.2-.197.325 0 .104.034.18.102.23a.45.45 0 0 0 .272.075c.11 0 .203-.024.282-.07s.162-.115.25-.2h0v-.565zm-4.03-1.02c-.153 0-.288.072-.406.217s-.177.37-.177.678c0 .32.05.554.154.7a.5.5 0 0 0 .436.221.62.62 0 0 0 .285-.065.72.72 0 0 0 .246-.227h0V10.67l-.088-.07a.7.7 0 0 0-.181-.092c-.092-.03-.18-.045-.27-.045zm-21.093-.052a.6.6 0 0 0-.403.149c-.116.1-.19.253-.226.46h1.173c0-.182-.042-.33-.125-.44s-.223-.17-.42-.17zm13.91 0a.6.6 0 0 0-.403.149c-.116.1-.19.253-.226.46h1.173c0-.182-.042-.33-.125-.44s-.223-.17-.42-.17zm-33.6-.366c.226 0 .4.182.4.406 0 .196-.14.36-.327.397l-.083.008H.4c-.227 0-.4-.182-.4-.406 0-.196.14-.36.327-.397l.083-.008h3.812zm11.81-2.124l-.24.962-2.82.95-.22-.643c-.02-.055.01-.133.06-.174l.04-.023 3.183-1.072zm19.096.374c.166 0 .3.045.403.136s.154.2.154.357-.05.267-.154.36-.237.14-.403.14a.58.58 0 0 1-.4-.14.46.46 0 0 1-.157-.36.45.45 0 0 1 .157-.357c.105-.09.238-.136.4-.136zm-29-1.95c.226 0 .4.182.4.406 0 .196-.14.36-.327.397l-.083.008H2.316c-.227 0-.4-.182-.4-.406 0-.196.14-.36.327-.397l.083-.008h3.812zm25.014-3.963c.192 0 .36.026.505.078h1.186v.695h-.518l.03.052a.75.75 0 0 1 .047.13.93.93 0 0 1 .029.24c0 .186-.033.347-.098.484a.92.92 0 0 1-.272.338c-.116.09-.25.155-.406.198a1.86 1.86 0 0 1-.501.065 1.29 1.29 0 0 1-.393-.065c-.044.035-.074.07-.092.104s-.026.08-.026.136c0 .082.036.143.108.182s.2.058.383.058h.524l.193.005c.31.018.55.08.728.186.212.128.318.336.318.626a.88.88 0 0 1-.128.464c-.085.14-.206.262-.364.363a1.96 1.96 0 0 1-.57.24c-.223.058-.474.088-.754.088A2.75 2.75 0 0 1 30.535 7a1.61 1.61 0 0 1-.433-.146c-.125-.065-.222-.15-.292-.253s-.105-.227-.105-.37c0-.26.155-.476.465-.65h0v-.026l-.082-.06c-.05-.044-.096-.095-.134-.153-.057-.087-.085-.197-.085-.33 0-.117.035-.228.105-.334s.157-.196.262-.27h0V4.38l-.083-.065c-.08-.07-.155-.16-.222-.27-.1-.145-.134-.313-.134-.503s.037-.365.11-.5a1.08 1.08 0 0 1 .298-.363c.125-.097.268-.17.43-.217a1.78 1.78 0 0 1 .505-.071zm-.465 3.382c-.118.104-.177.2-.177.318 0 .12.066.213.197.276s.306.094.524.094.398-.038.537-.114.2-.17.2-.282c0-.1-.043-.167-.128-.2s-.21-.052-.37-.052h0-.334l-.106-.001-.17-.01c-.07-.006-.13-.016-.184-.03zm4.084-3.382c.42 0 .74.118.96.354s.33.603.33 1.1h0V5.68h-.787l-.066-.33h-.026l-.142.114a2 2 0 0 1-.297.182 1.12 1.12 0 0 1-.505.114c-.15 0-.283-.025-.403-.075s-.222-.12-.305-.208a.96.96 0 0 1-.193-.308 1.04 1.04 0 0 1-.069-.383c0-.338.144-.6.433-.792s.754-.318 1.396-.383a.54.54 0 0 0-.128-.341c-.076-.084-.204-.127-.383-.127a1.17 1.17 0 0 0-.416.078c-.138.052-.285.123-.442.214h0l-.347-.63.213-.118a3.41 3.41 0 0 1 .446-.188 2.26 2.26 0 0 1 .731-.117zm-6.955 0c.42 0 .74.118.96.354s.33.603.33 1.1h0V5.68H28.3l-.066-.33h-.026l-.142.114a2 2 0 0 1-.297.182 1.12 1.12 0 0 1-.505.114c-.15 0-.283-.025-.403-.075s-.222-.12-.305-.208a.96.96 0 0 1-.193-.308 1.04 1.04 0 0 1-.069-.383c0-.338.144-.6.433-.792s.754-.318 1.396-.383a.54.54 0 0 0-.128-.341c-.076-.084-.204-.127-.383-.127a1.17 1.17 0 0 0-.416.078c-.138.052-.285.123-.442.214h0l-.347-.63.213-.118a3.41 3.41 0 0 1 .446-.188 2.26 2.26 0 0 1 .731-.117zm-3.7-.935l.23.008a2.89 2.89 0 0 1 .431.061c.205.045.385.12.537.227s.274.247.364.422.134.39.134.646c0 .247-.045.46-.134.643a1.25 1.25 0 0 1-.364.448c-.153.117-.33.203-.53.26s-.415.084-.642.084h0-.53V5.68h-.964V1.448h1.468zm14.57.935c.092 0 .167.005.226.016s.113.027.16.05h0l-.157.824-.088-.023-.082-.016a1.14 1.14 0 0 0-.184-.013c-.122 0-.25.043-.383.13s-.244.24-.33.46h0v1.87h-.964V2.46h.787l.066.565h.026l.074-.125c.102-.158.22-.278.352-.36.166-.104.332-.156.498-.156zM28.133 4.18l-.162.026c-.255.046-.437.106-.546.182-.13.09-.197.2-.197.325 0 .104.034.18.102.23a.45.45 0 0 0 .272.075c.11 0 .203-.024.282-.07s.162-.115.25-.2h0V4.18zm6.955 0l-.162.026c-.255.046-.437.106-.546.182-.13.09-.197.2-.197.325 0 .104.034.18.102.23a.45.45 0 0 0 .272.075c.11 0 .203-.024.282-.07s.162-.115.25-.2h0V4.18zM13.53 1.523c-.537.233-1.08.744-1.51 1.436l-.126.213 3.513 1.267c.175-.9.1-1.733-.185-2.306-.175.105-.377.168-.596.168-.51 0-.937-.326-1.094-.777zm17.612 1.502c-.127 0-.233.043-.318.13s-.128.216-.128.39c0 .182.043.317.128.406s.19.133.318.133.233-.044.318-.133.128-.224.128-.406c0-.17-.043-.297-.128-.386s-.19-.133-.318-.133zm-23.107.142c.227 0 .4.182.4.406 0 .196-.14.36-.327.397l-.083.008H4.222c-.226 0-.4-.182-.4-.406 0-.196.14-.36.327-.397l.083-.008h3.812zm16.002-.96h-.446v1.28h.472c.524 0 .787-.225.787-.675 0-.22-.07-.376-.2-.467s-.34-.136-.603-.136h0z" />
</svg>