<?xml version="1.0" encoding="UTF-8"?>
<svg xmlns="http://www.w3.org/2000/svg" viewBox="0 0 258.118 83.769" id="logo-visa-bw"><path d="M98.278 2.038L64.787 81.936H42.938L26.456 18.171c-.999-3.92-1.87-5.362-4.909-7.018-4.97-2.7-13.176-5.226-20.39-6.797l.487-2.318h35.173c4.48 0 8.511 2.98 9.536 8.141l8.707 46.238 21.503-54.38h21.715zm85.609 53.813c.091-21.085-29.148-22.254-28.954-31.675.064-2.863 2.793-5.913 8.765-6.692 2.96-.382 11.127-.69 20.386 3.575l3.621-16.95C182.732 2.311 176.332.58 168.371.58c-20.434 0-34.81 10.853-34.925 26.409-.13 11.503 10.269 17.917 18.087 21.747 8.062 3.915 10.764 6.428 10.724 9.926-.056 5.36-6.43 7.734-12.361 7.823-10.4.163-16.426-2.81-21.23-5.05l-3.751 17.517c4.837 2.214 13.75 4.14 22.979 4.24 21.724 0 35.93-10.727 35.993-27.34m53.962 26.085h19.113L240.264 2.038h-17.632c-3.974 0-7.322 2.304-8.805 5.857L182.81 81.936h21.709l4.31-11.932h26.515l2.505 11.932zM214.776 53.63l10.882-30.006 6.26 30.006h-17.142zM127.814 2.038l-17.09 79.898h-20.67l17.09-79.898h20.67z"/></svg>